<?xml version="1.0" encoding="UTF-8" standalone="no"?>
<!DOCTYPE svg PUBLIC "-//W3C//DTD SVG 1.1//EN"
 "http://www.w3.org/Graphics/SVG/1.1/DTD/svg11.dtd">
<!-- Generated by graphviz version 2.43.0 (0)
 -->
<!-- Title: G Pages: 1 -->
<svg width="547pt" height="475pt"
 viewBox="0.00 0.00 547.32 475.32" xmlns="http://www.w3.org/2000/svg" xmlns:xlink="http://www.w3.org/1999/xlink">
<g id="graph0" class="graph" transform="scale(1 1) rotate(0) translate(20.16 455.16)">
<title>G</title>
<polygon fill="white" stroke="transparent" points="-20.16,20.16 -20.16,-455.16 527.16,-455.16 527.16,20.16 -20.16,20.16"/>
<text text-anchor="middle" x="253.5" y="-411.8" font-family="WenQuanYi Zen Hei" font-size="24.00" fill="#17212b">图 4&#45;2 &#160;种子长度决定可见符号变量与可达深度</text>
<!-- target -->
<g id="node1" class="node">
<title>target</title>
<path fill="#fef3c7" stroke="#d97706" stroke-width="1.3" d="M398.5,-401C398.5,-401 145.5,-401 145.5,-401 139.5,-401 133.5,-395 133.5,-389 133.5,-389 133.5,-369 133.5,-369 133.5,-363 139.5,-357 145.5,-357 145.5,-357 398.5,-357 398.5,-357 404.5,-357 410.5,-363 410.5,-369 410.5,-369 410.5,-389 410.5,-389 410.5,-395 404.5,-401 398.5,-401"/>
<text text-anchor="middle" x="272" y="-382.4" font-family="WenQuanYi Zen Hei" font-size="12.00" fill="#17212b">目标链</text>
<text text-anchor="middle" x="272" y="-369.4" font-family="WenQuanYi Zen Hei" font-size="12.00" fill="#17212b">SYMC → n≥8 → buf[4]=3 → checksum=0x42</text>
</g>
<!-- long -->
<g id="node2" class="node">
<title>long</title>
<path fill="#ccfbf1" stroke="#0f766e" stroke-width="1.3" d="M261.5,-315C261.5,-315 92.5,-315 92.5,-315 86.5,-315 80.5,-309 80.5,-303 80.5,-303 80.5,-283 80.5,-283 80.5,-277 86.5,-271 92.5,-271 92.5,-271 261.5,-271 261.5,-271 267.5,-271 273.5,-277 273.5,-283 273.5,-283 273.5,-303 273.5,-303 273.5,-309 267.5,-315 261.5,-315"/>
<text text-anchor="middle" x="177" y="-296.4" font-family="WenQuanYi Zen Hei" font-size="12.00" fill="#17212b">8 字节种子 AAAAAAAA</text>
<text text-anchor="middle" x="177" y="-283.4" font-family="WenQuanYi Zen Hei" font-size="12.00" fill="#17212b">偏移 0…7 均可被读取和符号化</text>
</g>
<!-- target&#45;&gt;long -->
<g id="edge1" class="edge">
<title>target&#45;&gt;long</title>
<path fill="none" stroke="#64748b" stroke-width="1.5" d="M248.03,-356.8C235.54,-345.76 220.15,-332.15 206.89,-320.43"/>
<polygon fill="#64748b" stroke="#64748b" stroke-width="1.5" points="208.32,-318.19 200.96,-315.19 204.84,-322.12 208.32,-318.19"/>
</g>
<!-- short -->
<g id="node3" class="node">
<title>short</title>
<path fill="#ffedd5" stroke="#c2410c" stroke-width="1.3" d="M425.5,-315C425.5,-315 316.5,-315 316.5,-315 310.5,-315 304.5,-309 304.5,-303 304.5,-303 304.5,-283 304.5,-283 304.5,-277 310.5,-271 316.5,-271 316.5,-271 425.5,-271 425.5,-271 431.5,-271 437.5,-277 437.5,-283 437.5,-283 437.5,-303 437.5,-303 437.5,-309 431.5,-315 425.5,-315"/>
<text text-anchor="middle" x="371" y="-296.4" font-family="WenQuanYi Zen Hei" font-size="12.00" fill="#17212b">4 字节种子 AAAA</text>
<text text-anchor="middle" x="371" y="-283.4" font-family="WenQuanYi Zen Hei" font-size="12.00" fill="#17212b">只有偏移 0…3 存在</text>
</g>
<!-- target&#45;&gt;short -->
<g id="edge2" class="edge">
<title>target&#45;&gt;short</title>
<path fill="none" stroke="#64748b" stroke-width="1.5" d="M296.98,-356.8C310.11,-345.66 326.33,-331.91 340.23,-320.11"/>
<polygon fill="#64748b" stroke="#64748b" stroke-width="1.5" points="342.01,-322.04 346.03,-315.19 338.61,-318.04 342.01,-322.04"/>
</g>
<!-- l1 -->
<g id="node4" class="node">
<title>l1</title>
<path fill="#dbeafe" stroke="#2563eb" stroke-width="1.3" d="M281.5,-229C281.5,-229 56.5,-229 56.5,-229 50.5,-229 44.5,-223 44.5,-217 44.5,-217 44.5,-197 44.5,-197 44.5,-191 50.5,-185 56.5,-185 56.5,-185 281.5,-185 281.5,-185 287.5,-185 293.5,-191 293.5,-197 293.5,-197 293.5,-217 293.5,-217 293.5,-223 287.5,-229 281.5,-229"/>
<text text-anchor="middle" x="169" y="-210.4" font-family="WenQuanYi Zen Hei" font-size="12.00" fill="#17212b">gen 0→4</text>
<text text-anchor="middle" x="169" y="-197.4" font-family="WenQuanYi Zen Hei" font-size="12.00" fill="#17212b">A… → S… → SY… → SYM… → SYMC…</text>
</g>
<!-- long&#45;&gt;l1 -->
<g id="edge3" class="edge">
<title>long&#45;&gt;l1</title>
<path fill="none" stroke="#64748b" stroke-width="1.5" d="M174.98,-270.8C174,-260.46 172.8,-247.86 171.73,-236.67"/>
<polygon fill="#64748b" stroke="#64748b" stroke-width="1.5" points="174.34,-236.41 171.02,-229.19 169.12,-236.91 174.34,-236.41"/>
</g>
<!-- s1 -->
<g id="node7" class="node">
<title>s1</title>
<path fill="#dbeafe" stroke="#2563eb" stroke-width="1.3" d="M419,-229C419,-229 333,-229 333,-229 327,-229 321,-223 321,-217 321,-217 321,-197 321,-197 321,-191 327,-185 333,-185 333,-185 419,-185 419,-185 425,-185 431,-191 431,-197 431,-197 431,-217 431,-217 431,-223 425,-229 419,-229"/>
<text text-anchor="middle" x="376" y="-210.4" font-family="WenQuanYi Zen Hei" font-size="12.00" fill="#17212b">gen 0→4</text>
<text text-anchor="middle" x="376" y="-197.4" font-family="WenQuanYi Zen Hei" font-size="12.00" fill="#17212b">同样得到 SYMC</text>
</g>
<!-- short&#45;&gt;s1 -->
<g id="edge6" class="edge">
<title>short&#45;&gt;s1</title>
<path fill="none" stroke="#64748b" stroke-width="1.5" d="M372.26,-270.8C372.87,-260.56 373.61,-248.1 374.27,-236.99"/>
<polygon fill="#64748b" stroke="#64748b" stroke-width="1.5" points="376.91,-236.83 374.74,-229.19 371.67,-236.52 376.91,-236.83"/>
</g>
<!-- l2 -->
<g id="node5" class="node">
<title>l2</title>
<path fill="#dbeafe" stroke="#2563eb" stroke-width="1.3" d="M211.5,-143C211.5,-143 126.5,-143 126.5,-143 120.5,-143 114.5,-137 114.5,-131 114.5,-131 114.5,-111 114.5,-111 114.5,-105 120.5,-99 126.5,-99 126.5,-99 211.5,-99 211.5,-99 217.5,-99 223.5,-105 223.5,-111 223.5,-111 223.5,-131 223.5,-131 223.5,-137 217.5,-143 211.5,-143"/>
<text text-anchor="middle" x="169" y="-124.4" font-family="WenQuanYi Zen Hei" font-size="12.00" fill="#17212b">gen 5</text>
<text text-anchor="middle" x="169" y="-111.4" font-family="WenQuanYi Zen Hei" font-size="12.00" fill="#17212b">求解 buf[4] = 3</text>
</g>
<!-- l1&#45;&gt;l2 -->
<g id="edge4" class="edge">
<title>l1&#45;&gt;l2</title>
<path fill="none" stroke="#64748b" stroke-width="1.5" d="M169,-184.8C169,-174.56 169,-162.1 169,-150.99"/>
<polygon fill="#64748b" stroke="#64748b" stroke-width="1.5" points="171.63,-150.69 169,-143.19 166.38,-150.69 171.63,-150.69"/>
</g>
<!-- l3 -->
<g id="node6" class="node">
<title>l3</title>
<path fill="#dcfce7" stroke="#15803d" stroke-width="1.3" d="M252.5,-57C252.5,-57 83.5,-57 83.5,-57 77.5,-57 71.5,-51 71.5,-45 71.5,-45 71.5,-12 71.5,-12 71.5,-6 77.5,0 83.5,0 83.5,0 252.5,0 252.5,0 258.5,0 264.5,-6 264.5,-12 264.5,-12 264.5,-45 264.5,-45 264.5,-51 258.5,-57 252.5,-57"/>
<text text-anchor="middle" x="168" y="-38.4" font-family="WenQuanYi Zen Hei" font-size="12.00" fill="#17212b">gen 6</text>
<text text-anchor="middle" x="168" y="-25.4" font-family="WenQuanYi Zen Hei" font-size="12.00" fill="#17212b">一次 Z3 求解 3 字节 checksum</text>
<text text-anchor="middle" x="168" y="-12.4" font-family="WenQuanYi Zen Hei" font-size="12.00" fill="#17212b">命中深层代码</text>
</g>
<!-- l2&#45;&gt;l3 -->
<g id="edge5" class="edge">
<title>l2&#45;&gt;l3</title>
<path fill="none" stroke="#64748b" stroke-width="1.5" d="M168.76,-98.55C168.65,-88.53 168.52,-76.33 168.39,-64.99"/>
<polygon fill="#64748b" stroke="#64748b" stroke-width="1.5" points="171.02,-64.78 168.31,-57.31 165.77,-64.84 171.02,-64.78"/>
</g>
<!-- eof -->
<g id="node8" class="node">
<title>eof</title>
<path fill="#fee2e2" stroke="#b91c1c" stroke-width="1.3" d="M437.5,-143C437.5,-143 314.5,-143 314.5,-143 308.5,-143 302.5,-137 302.5,-131 302.5,-131 302.5,-111 302.5,-111 302.5,-105 308.5,-99 314.5,-99 314.5,-99 437.5,-99 437.5,-99 443.5,-99 449.5,-105 449.5,-111 449.5,-111 449.5,-131 449.5,-131 449.5,-137 443.5,-143 437.5,-143"/>
<text text-anchor="middle" x="376" y="-124.4" font-family="WenQuanYi Zen Hei" font-size="12.00" fill="#17212b">n = read() 返回值 = 4</text>
<text text-anchor="middle" x="376" y="-111.4" font-family="WenQuanYi Zen Hei" font-size="12.00" fill="#17212b">具体值，不是符号分支</text>
</g>
<!-- s1&#45;&gt;eof -->
<g id="edge7" class="edge">
<title>s1&#45;&gt;eof</title>
<path fill="none" stroke="#64748b" stroke-width="1.5" d="M376,-184.8C376,-174.56 376,-162.1 376,-150.99"/>
<polygon fill="#64748b" stroke="#64748b" stroke-width="1.5" points="378.63,-150.69 376,-143.19 373.38,-150.69 378.63,-150.69"/>
</g>
<!-- stuck -->
<g id="node9" class="node">
<title>stuck</title>
<path fill="#fee2e2" stroke="#b91c1c" stroke-width="1.3" d="M450.5,-50.5C450.5,-50.5 303.5,-50.5 303.5,-50.5 297.5,-50.5 291.5,-44.5 291.5,-38.5 291.5,-38.5 291.5,-18.5 291.5,-18.5 291.5,-12.5 297.5,-6.5 303.5,-6.5 303.5,-6.5 450.5,-6.5 450.5,-6.5 456.5,-6.5 462.5,-12.5 462.5,-18.5 462.5,-18.5 462.5,-38.5 462.5,-38.5 462.5,-44.5 456.5,-50.5 450.5,-50.5"/>
<text text-anchor="middle" x="377" y="-31.9" font-family="WenQuanYi Zen Hei" font-size="12.00" fill="#17212b">不动点</text>
<text text-anchor="middle" x="377" y="-18.9" font-family="WenQuanYi Zen Hei" font-size="12.00" fill="#17212b">求解器不能创造未建模字节</text>
</g>
<!-- eof&#45;&gt;stuck -->
<g id="edge8" class="edge">
<title>eof&#45;&gt;stuck</title>
<path fill="none" stroke="#64748b" stroke-width="1.5" d="M376.24,-98.55C376.37,-86.61 376.54,-71.56 376.68,-58.57"/>
<polygon fill="#64748b" stroke="#64748b" stroke-width="1.5" points="379.31,-58.32 376.76,-50.79 374.06,-58.26 379.31,-58.32"/>
</g>
</g>
</svg>
