<?xml version="1.0" encoding="UTF-8" standalone="no"?>
<!DOCTYPE svg PUBLIC "-//W3C//DTD SVG 1.1//EN"
 "http://www.w3.org/Graphics/SVG/1.1/DTD/svg11.dtd">
<!-- Generated by graphviz version 2.43.0 (0)
 -->
<!-- Title: G Pages: 1 -->
<svg width="1000" height="488"
 viewBox="0.00 0.00 868.32 424.32" xmlns="http://www.w3.org/2000/svg" xmlns:xlink="http://www.w3.org/1999/xlink">
<g id="graph0" class="graph" transform="scale(1 1) rotate(0) translate(20.16 404.16)">
<title>G</title>
<polygon fill="white" stroke="transparent" points="-20.16,20.16 -20.16,-404.16 848.16,-404.16 848.16,20.16 -20.16,20.16"/>
<text text-anchor="start" x="11" y="-357.2" font-family="WenQuanYi Zen Hei" font-weight="bold" font-size="26.00" fill="#17212b">图 R&#45;12　Query IR 作为跨层证据总线</text>
<text text-anchor="start" x="11" y="-330.8" font-family="WenQuanYi Zen Hei" font-size="14.00" fill="#64748b">求解复用、字符串、语法补洞、schedule 与 holdout campaign 共享同一套内容身份</text>
<g id="clust1" class="cluster">
<title>cluster_p</title>
<path fill="#fffbeb" stroke="#fdba74" d="M163,-237C163,-237 728,-237 728,-237 734,-237 740,-243 740,-249 740,-249 740,-300 740,-300 740,-306 734,-312 728,-312 728,-312 163,-312 163,-312 157,-312 151,-306 151,-300 151,-300 151,-249 151,-249 151,-243 157,-237 163,-237"/>
<text text-anchor="middle" x="245" y="-296.8" font-family="WenQuanYi Zen Hei" font-size="14.00" fill="#17212b">生产者：谁都可以提出查询</text>
</g>
<g id="clust2" class="cluster">
<title>cluster_c</title>
<path fill="#eff6ff" stroke="#93c5fd" d="M20,-84C20,-84 808,-84 808,-84 814,-84 820,-90 820,-96 820,-96 820,-157 820,-157 820,-163 814,-169 808,-169 808,-169 20,-169 20,-169 14,-169 8,-163 8,-157 8,-157 8,-96 8,-96 8,-90 14,-84 20,-84"/>
<text text-anchor="middle" x="80.5" y="-153.8" font-family="WenQuanYi Zen Hei" font-size="14.00" fill="#17212b">消费者：复用与调度</text>
</g>
<!-- a1 -->
<g id="node1" class="node">
<title>a1</title>
<path fill="#ffedd5" stroke="#c2410c" stroke-width="1.3" d="M720,-281C720,-281 618,-281 618,-281 612,-281 606,-275 606,-269 606,-269 606,-257 606,-257 606,-251 612,-245 618,-245 618,-245 720,-245 720,-245 726,-245 732,-251 732,-257 732,-257 732,-269 732,-269 732,-275 726,-281 720,-281"/>
<text text-anchor="middle" x="669" y="-259.6" font-family="WenQuanYi Zen Hei" font-size="13.00" fill="#17212b">concolic 路径约束</text>
</g>
<!-- qir -->
<g id="node5" class="node">
<title>qir</title>
<path fill="#ede9fe" stroke="#6d28d9" stroke-width="2.6" d="M683,-213C683,-213 189,-213 189,-213 183,-213 177,-207 177,-201 177,-201 177,-189 177,-189 177,-183 183,-177 189,-177 189,-177 683,-177 683,-177 689,-177 695,-183 695,-189 695,-189 695,-201 695,-201 695,-207 689,-213 683,-213"/>
<text text-anchor="middle" x="436" y="-191.6" font-family="WenQuanYi Zen Hei" font-size="13.00" fill="#17212b">Query IR：与具体 solver 解耦 · 内容寻址 · 结构特征 schema v2</text>
</g>
<!-- a1&#45;&gt;qir -->
<g id="edge1" class="edge">
<title>a1&#45;&gt;qir</title>
<path fill="none" stroke="#cbd5e1" stroke-width="1.5" d="M617.77,-244.92C609.19,-242.19 600.36,-239.45 592,-237 565.95,-229.36 537.27,-221.62 511.67,-214.96"/>
<polygon fill="#cbd5e1" stroke="#cbd5e1" stroke-width="1.5" points="512.11,-212.36 504.19,-213.02 510.79,-217.45 512.11,-212.36"/>
</g>
<!-- a2 -->
<g id="node2" class="node">
<title>a2</title>
<path fill="#ffedd5" stroke="#c2410c" stroke-width="1.3" d="M566.5,-281C566.5,-281 463.5,-281 463.5,-281 457.5,-281 451.5,-275 451.5,-269 451.5,-269 451.5,-257 451.5,-257 451.5,-251 457.5,-245 463.5,-245 463.5,-245 566.5,-245 566.5,-245 572.5,-245 578.5,-251 578.5,-257 578.5,-257 578.5,-269 578.5,-269 578.5,-275 572.5,-281 566.5,-281"/>
<text text-anchor="middle" x="515" y="-259.6" font-family="WenQuanYi Zen Hei" font-size="13.00" fill="#17212b">字符串 / libc 语义</text>
</g>
<!-- a2&#45;&gt;qir -->
<g id="edge2" class="edge">
<title>a2&#45;&gt;qir</title>
<path fill="none" stroke="#cbd5e1" stroke-width="1.5" d="M494.24,-244.66C484.54,-236.55 472.86,-226.8 462.53,-218.16"/>
<polygon fill="#cbd5e1" stroke="#cbd5e1" stroke-width="1.5" points="464.06,-216.02 456.62,-213.22 460.69,-220.05 464.06,-216.02"/>
</g>
<!-- a3 -->
<g id="node3" class="node">
<title>a3</title>
<path fill="#ffedd5" stroke="#c2410c" stroke-width="1.3" d="M412.5,-281C412.5,-281 303.5,-281 303.5,-281 297.5,-281 291.5,-275 291.5,-269 291.5,-269 291.5,-257 291.5,-257 291.5,-251 297.5,-245 303.5,-245 303.5,-245 412.5,-245 412.5,-245 418.5,-245 424.5,-251 424.5,-257 424.5,-257 424.5,-269 424.5,-269 424.5,-275 418.5,-281 412.5,-281"/>
<text text-anchor="middle" x="358" y="-259.6" font-family="WenQuanYi Zen Hei" font-size="13.00" fill="#17212b">grammar hole 补全</text>
</g>
<!-- a3&#45;&gt;qir -->
<g id="edge3" class="edge">
<title>a3&#45;&gt;qir</title>
<path fill="none" stroke="#cbd5e1" stroke-width="1.5" d="M378.49,-244.66C388.08,-236.55 399.6,-226.8 409.81,-218.16"/>
<polygon fill="#cbd5e1" stroke="#cbd5e1" stroke-width="1.5" points="411.61,-220.07 415.64,-213.22 408.22,-216.07 411.61,-220.07"/>
</g>
<!-- a4 -->
<g id="node4" class="node">
<title>a4</title>
<path fill="#ffedd5" stroke="#c2410c" stroke-width="1.3" d="M252.5,-281C252.5,-281 171.5,-281 171.5,-281 165.5,-281 159.5,-275 159.5,-269 159.5,-269 159.5,-257 159.5,-257 159.5,-251 165.5,-245 171.5,-245 171.5,-245 252.5,-245 252.5,-245 258.5,-245 264.5,-251 264.5,-257 264.5,-257 264.5,-269 264.5,-269 264.5,-275 258.5,-281 252.5,-281"/>
<text text-anchor="middle" x="212" y="-259.6" font-family="WenQuanYi Zen Hei" font-size="13.00" fill="#17212b">schedule 约束</text>
</g>
<!-- a4&#45;&gt;qir -->
<g id="edge4" class="edge">
<title>a4&#45;&gt;qir</title>
<path fill="none" stroke="#cbd5e1" stroke-width="1.5" d="M255.08,-244.92C262.67,-242.13 270.53,-239.38 278,-237 303.19,-228.99 331.01,-221.37 356.19,-214.92"/>
<polygon fill="#cbd5e1" stroke="#cbd5e1" stroke-width="1.5" points="356.94,-217.44 363.56,-213.05 355.65,-212.35 356.94,-217.44"/>
</g>
<!-- b1 -->
<g id="node6" class="node">
<title>b1</title>
<path fill="#dbeafe" stroke="#2563eb" stroke-width="1.3" d="M799.5,-138C799.5,-138 694.5,-138 694.5,-138 688.5,-138 682.5,-132 682.5,-126 682.5,-126 682.5,-104 682.5,-104 682.5,-98 688.5,-92 694.5,-92 694.5,-92 799.5,-92 799.5,-92 805.5,-92 811.5,-98 811.5,-104 811.5,-104 811.5,-126 811.5,-126 811.5,-132 805.5,-138 799.5,-138"/>
<text text-anchor="middle" x="747" y="-118.6" font-family="WenQuanYi Zen Hei" font-size="13.00" fill="#17212b">exact cache</text>
<text text-anchor="middle" x="747" y="-104.6" font-family="WenQuanYi Zen Hei" font-size="13.00" fill="#17212b">同一查询直接命中</text>
</g>
<!-- qir&#45;&gt;b1 -->
<g id="edge5" class="edge">
<title>qir&#45;&gt;b1</title>
<path fill="none" stroke="#cbd5e1" stroke-width="1.5" d="M635.43,-176.97C649.32,-174.6 660.98,-171.94 669,-169 685.38,-162.99 701.64,-152.8 715.04,-142.95"/>
<polygon fill="#cbd5e1" stroke="#cbd5e1" stroke-width="1.5" points="716.97,-144.78 721.37,-138.16 713.81,-140.59 716.97,-144.78"/>
</g>
<!-- b2 -->
<g id="node7" class="node">
<title>b2</title>
<path fill="#dbeafe" stroke="#2563eb" stroke-width="1.3" d="M643,-138C643,-138 535,-138 535,-138 529,-138 523,-132 523,-126 523,-126 523,-104 523,-104 523,-98 529,-92 535,-92 535,-92 643,-92 643,-92 649,-92 655,-98 655,-104 655,-104 655,-126 655,-126 655,-132 649,-138 643,-138"/>
<text text-anchor="middle" x="589" y="-118.6" font-family="WenQuanYi Zen Hei" font-size="13.00" fill="#17212b">prefix context 复用</text>
<text text-anchor="middle" x="589" y="-104.6" font-family="WenQuanYi Zen Hei" font-size="13.00" fill="#17212b">（Pangolin 式）</text>
</g>
<!-- qir&#45;&gt;b2 -->
<g id="edge6" class="edge">
<title>qir&#45;&gt;b2</title>
<path fill="none" stroke="#cbd5e1" stroke-width="1.5" d="M490.84,-176.93C497.06,-174.49 503.23,-171.84 509,-169 524.16,-161.54 539.86,-151.67 553.3,-142.48"/>
<polygon fill="#cbd5e1" stroke="#cbd5e1" stroke-width="1.5" points="555.04,-144.46 559.7,-138.03 552.04,-140.15 555.04,-144.46"/>
</g>
<!-- b3 -->
<g id="node8" class="node">
<title>b3</title>
<path fill="#dbeafe" stroke="#2563eb" stroke-width="1.3" d="M483.5,-133C483.5,-133 388.5,-133 388.5,-133 382.5,-133 376.5,-127 376.5,-121 376.5,-121 376.5,-109 376.5,-109 376.5,-103 382.5,-97 388.5,-97 388.5,-97 483.5,-97 483.5,-97 489.5,-97 495.5,-103 495.5,-109 495.5,-109 495.5,-121 495.5,-121 495.5,-127 489.5,-133 483.5,-133"/>
<text text-anchor="middle" x="436" y="-111.6" font-family="WenQuanYi Zen Hei" font-size="13.00" fill="#17212b">PSCache 部分解</text>
</g>
<!-- qir&#45;&gt;b3 -->
<g id="edge7" class="edge">
<title>qir&#45;&gt;b3</title>
<path fill="none" stroke="#cbd5e1" stroke-width="1.5" d="M436,-176.69C436,-166.19 436,-152.61 436,-140.96"/>
<polygon fill="#cbd5e1" stroke="#cbd5e1" stroke-width="1.5" points="438.63,-140.76 436,-133.26 433.38,-140.76 438.63,-140.76"/>
</g>
<!-- b4 -->
<g id="node9" class="node">
<title>b4</title>
<path fill="#dbeafe" stroke="#2563eb" stroke-width="1.3" d="M337.5,-138C337.5,-138 220.5,-138 220.5,-138 214.5,-138 208.5,-132 208.5,-126 208.5,-126 208.5,-104 208.5,-104 208.5,-98 214.5,-92 220.5,-92 220.5,-92 337.5,-92 337.5,-92 343.5,-92 349.5,-98 349.5,-104 349.5,-104 349.5,-126 349.5,-126 349.5,-132 343.5,-138 337.5,-138"/>
<text text-anchor="middle" x="279" y="-118.6" font-family="WenQuanYi Zen Hei" font-size="13.00" fill="#17212b">QF_BV portfolio</text>
<text text-anchor="middle" x="279" y="-104.6" font-family="WenQuanYi Zen Hei" font-size="13.00" fill="#17212b">cvc5 / Bitwuzla / Z3</text>
</g>
<!-- qir&#45;&gt;b4 -->
<g id="edge8" class="edge">
<title>qir&#45;&gt;b4</title>
<path fill="none" stroke="#cbd5e1" stroke-width="1.5" d="M381.61,-176.96C375.25,-174.5 368.92,-171.83 363,-169 347.22,-161.45 330.75,-151.56 316.62,-142.37"/>
<polygon fill="#cbd5e1" stroke="#cbd5e1" stroke-width="1.5" points="318.01,-140.14 310.31,-138.2 315.12,-144.52 318.01,-140.14"/>
</g>
<!-- b5 -->
<g id="node10" class="node">
<title>b5</title>
<path fill="#dbeafe" stroke="#2563eb" stroke-width="1.3" d="M169.5,-133C169.5,-133 28.5,-133 28.5,-133 22.5,-133 16.5,-127 16.5,-121 16.5,-121 16.5,-109 16.5,-109 16.5,-103 22.5,-97 28.5,-97 28.5,-97 169.5,-97 169.5,-97 175.5,-97 181.5,-103 181.5,-109 181.5,-109 181.5,-121 181.5,-121 181.5,-127 175.5,-133 169.5,-133"/>
<text text-anchor="middle" x="99" y="-111.6" font-family="WenQuanYi Zen Hei" font-size="13.00" fill="#17212b">sealed holdout campaign</text>
</g>
<!-- qir&#45;&gt;b5 -->
<g id="edge9" class="edge">
<title>qir&#45;&gt;b5</title>
<path fill="none" stroke="#cbd5e1" stroke-width="1.5" d="M224.38,-176.99C214.37,-174.64 204.53,-171.99 195,-169 171.86,-161.74 147.99,-148.59 129.83,-137.2"/>
<polygon fill="#cbd5e1" stroke="#cbd5e1" stroke-width="1.5" points="131.15,-134.93 123.42,-133.1 128.32,-139.35 131.15,-134.93"/>
</g>
<!-- gate -->
<g id="node11" class="node">
<title>gate</title>
<path fill="#dcfce7" stroke="#15803d" stroke-width="2.4" d="M759,-60C759,-60 265,-60 265,-60 259,-60 253,-54 253,-48 253,-48 253,-12 253,-12 253,-6 259,0 265,0 265,0 759,0 759,0 765,0 771,-6 771,-12 771,-12 771,-48 771,-48 771,-54 765,-60 759,-60"/>
<text text-anchor="middle" x="512" y="-40.6" font-family="WenQuanYi Zen Hei" font-size="13.00" fill="#17212b">复用的三条硬规则</text>
<text text-anchor="middle" x="512" y="-26.6" font-family="WenQuanYi Zen Hei" font-size="13.00" fill="#17212b">① 跨前缀复用不传播 UNSAT　② SAT 必须有可验证模型</text>
<text text-anchor="middle" x="512" y="-12.6" font-family="WenQuanYi Zen Hei" font-size="13.00" fill="#17212b">③ 命中后一律对当前完整 roots 重新求值</text>
</g>
<!-- b1&#45;&gt;gate -->
<g id="edge10" class="edge">
<title>b1&#45;&gt;gate</title>
<path fill="none" stroke="#15803d" stroke-width="1.5" d="M690.44,-91.93C683.24,-89.21 675.96,-86.51 669,-84 649.15,-76.84 627.79,-69.43 607.41,-62.5"/>
<polygon fill="#15803d" stroke="#15803d" stroke-width="1.5" points="608.19,-59.99 600.24,-60.07 606.5,-64.97 608.19,-59.99"/>
</g>
<!-- b2&#45;&gt;gate -->
<g id="edge11" class="edge">
<title>b2&#45;&gt;gate</title>
<path fill="none" stroke="#15803d" stroke-width="1.5" d="M568.37,-91.76C561.05,-83.88 552.64,-74.8 544.58,-66.12"/>
<polygon fill="#15803d" stroke="#15803d" stroke-width="1.5" points="546.1,-63.89 539.07,-60.18 542.25,-67.46 546.1,-63.89"/>
</g>
<!-- b3&#45;&gt;gate -->
<g id="edge12" class="edge">
<title>b3&#45;&gt;gate</title>
<path fill="none" stroke="#15803d" stroke-width="1.5" d="M451.75,-96.8C459.89,-87.91 470.14,-76.71 479.87,-66.09"/>
<polygon fill="#15803d" stroke="#15803d" stroke-width="1.5" points="482.07,-67.58 485.2,-60.27 478.2,-64.03 482.07,-67.58"/>
</g>
<!-- b4&#45;&gt;gate -->
<g id="edge13" class="edge">
<title>b4&#45;&gt;gate</title>
<path fill="none" stroke="#15803d" stroke-width="1.5" d="M340.93,-91.87C348.36,-89.22 355.85,-86.55 363,-84 382.46,-77.06 403.36,-69.62 423.17,-62.58"/>
<polygon fill="#15803d" stroke="#15803d" stroke-width="1.5" points="424.22,-64.99 430.41,-60 422.46,-60.04 424.22,-64.99"/>
</g>
</g>
</svg>
