<?xml version="1.0" encoding="UTF-8" standalone="no"?>
<!DOCTYPE svg PUBLIC "-//W3C//DTD SVG 1.1//EN"
 "http://www.w3.org/Graphics/SVG/1.1/DTD/svg11.dtd">
<!-- Generated by graphviz version 2.43.0 (0)
 -->
<!-- Title: G Pages: 1 -->
<svg width="1000" height="1031"
 viewBox="0.00 0.00 650.32 670.32" xmlns="http://www.w3.org/2000/svg" xmlns:xlink="http://www.w3.org/1999/xlink">
<g id="graph0" class="graph" transform="scale(1 1) rotate(0) translate(20.16 650.16)">
<title>G</title>
<polygon fill="white" stroke="transparent" points="-20.16,20.16 -20.16,-650.16 630.16,-650.16 630.16,20.16 -20.16,20.16"/>
<text text-anchor="start" x="11" y="-603.2" font-family="WenQuanYi Zen Hei" font-weight="bold" font-size="26.00" fill="#17212b">图 R&#45;10　编译期符号化：站点身份为什么必须稳定</text>
<text text-anchor="start" x="11" y="-576.8" font-family="WenQuanYi Zen Hei" font-size="14.00" fill="#64748b">站点身份一旦依赖运行地址，ASLR 会让分支剪枝图 B3 直接失效</text>
<g id="clust1" class="cluster">
<title>cluster_ok</title>
<path fill="#f0fdf4" stroke="#4ade80" d="M69,-8C69,-8 323,-8 323,-8 329,-8 335,-14 335,-20 335,-20 335,-201 335,-201 335,-207 329,-213 323,-213 323,-213 69,-213 69,-213 63,-213 57,-207 57,-201 57,-201 57,-20 57,-20 57,-14 63,-8 69,-8"/>
<text text-anchor="middle" x="160" y="-198.6" font-family="WenQuanYi Zen Hei" font-size="13.00" fill="#17212b">site_id 怎么来：compiler/SiteId.h</text>
</g>
<g id="clust2" class="cluster">
<title>cluster_bad</title>
<path fill="#fef2f2" stroke="#f87171" d="M355,-14.5C355,-14.5 541,-14.5 541,-14.5 547,-14.5 553,-20.5 553,-26.5 553,-26.5 553,-201 553,-201 553,-207 547,-213 541,-213 541,-213 355,-213 355,-213 349,-213 343,-207 343,-201 343,-201 343,-26.5 343,-26.5 343,-20.5 349,-14.5 355,-14.5"/>
<text text-anchor="middle" x="440.5" y="-198.6" font-family="WenQuanYi Zen Hei" font-size="13.00" fill="#17212b">若改用运行地址做身份（反例）</text>
</g>
<!-- src -->
<g id="node1" class="node">
<title>src</title>
<path fill="#fef3c7" stroke="#d97706" stroke-width="1.3" d="M467.5,-566C467.5,-566 160.5,-566 160.5,-566 154.5,-566 148.5,-560 148.5,-554 148.5,-554 148.5,-542 148.5,-542 148.5,-536 154.5,-530 160.5,-530 160.5,-530 467.5,-530 467.5,-530 473.5,-530 479.5,-536 479.5,-542 479.5,-542 479.5,-554 479.5,-554 479.5,-560 473.5,-566 467.5,-566"/>
<text text-anchor="middle" x="314" y="-544.9" font-family="WenQuanYi Zen Hei" font-size="12.00" fill="#17212b">源码　if (x == 0x42) …</text>
</g>
<!-- ir -->
<g id="node2" class="node">
<title>ir</title>
<path fill="#f1f5f9" stroke="#94a3b8" stroke-width="1.3" d="M467.5,-475C467.5,-475 160.5,-475 160.5,-475 154.5,-475 148.5,-469 148.5,-463 148.5,-463 148.5,-451 148.5,-451 148.5,-445 154.5,-439 160.5,-439 160.5,-439 467.5,-439 467.5,-439 473.5,-439 479.5,-445 479.5,-451 479.5,-451 479.5,-463 479.5,-463 479.5,-469 473.5,-475 467.5,-475"/>
<text text-anchor="middle" x="314" y="-453.9" font-family="WenQuanYi Zen Hei" font-size="12.00" fill="#17212b">LLVM IR　%c = icmp eq i32 %x, 66 ；br i1 %c, …</text>
</g>
<!-- src&#45;&gt;ir -->
<g id="edge1" class="edge">
<title>src&#45;&gt;ir</title>
<path fill="none" stroke="#cbd5e1" stroke-width="1.5" d="M314,-529.84C314,-516.54 314,-497.93 314,-482.98"/>
<polygon fill="#cbd5e1" stroke="#cbd5e1" stroke-width="1.5" points="316.63,-482.61 314,-475.11 311.38,-482.61 316.63,-482.61"/>
</g>
<!-- pass -->
<g id="node3" class="node">
<title>pass</title>
<path fill="#ede9fe" stroke="#6d28d9" stroke-width="2.2" d="M489,-384C489,-384 139,-384 139,-384 133,-384 127,-378 127,-372 127,-372 127,-360 127,-360 127,-354 133,-348 139,-348 139,-348 489,-348 489,-348 495,-348 501,-354 501,-360 501,-360 501,-372 501,-372 501,-378 495,-384 489,-384"/>
<text text-anchor="middle" x="314" y="-362.9" font-family="WenQuanYi Zen Hei" font-size="12.00" fill="#17212b">SymCC pass：插入 _sym_build_* 与 _sym_push_path_constraint</text>
</g>
<!-- ir&#45;&gt;pass -->
<g id="edge2" class="edge">
<title>ir&#45;&gt;pass</title>
<path fill="none" stroke="#cbd5e1" stroke-width="1.5" d="M314,-438.84C314,-425.54 314,-406.93 314,-391.98"/>
<polygon fill="#cbd5e1" stroke="#cbd5e1" stroke-width="1.5" points="316.63,-391.61 314,-384.11 311.38,-391.61 316.63,-391.61"/>
</g>
<!-- rt -->
<g id="node4" class="node">
<title>rt</title>
<path fill="#ccfbf1" stroke="#0f766e" stroke-width="1.3" d="M540,-293C540,-293 88,-293 88,-293 82,-293 76,-287 76,-281 76,-281 76,-261 76,-261 76,-255 82,-249 88,-249 88,-249 540,-249 540,-249 546,-249 552,-255 552,-261 552,-261 552,-281 552,-281 552,-287 546,-293 540,-293"/>
<text text-anchor="middle" x="314" y="-274.4" font-family="WenQuanYi Zen Hei" font-size="12.00" fill="#17212b">运行时实参（gdb 可直接看到）</text>
<text text-anchor="middle" x="314" y="-261.4" font-family="WenQuanYi Zen Hei" font-size="12.00" fill="#17212b">_sym_push_path_constraint(constraint=0x…, taken=0, site_id=97970033924416)</text>
</g>
<!-- pass&#45;&gt;rt -->
<g id="edge3" class="edge">
<title>pass&#45;&gt;rt</title>
<path fill="none" stroke="#cbd5e1" stroke-width="1.5" d="M314,-347.94C314,-334.81 314,-316.37 314,-300.94"/>
<polygon fill="#cbd5e1" stroke="#cbd5e1" stroke-width="1.5" points="316.63,-300.69 314,-293.19 311.38,-300.69 316.63,-300.69"/>
</g>
<!-- good -->
<g id="node5" class="node">
<title>good</title>
<path fill="#dcfce7" stroke="#15803d" stroke-width="2" d="M315,-183C315,-183 77,-183 77,-183 71,-183 65,-177 65,-171 65,-171 65,-151 65,-151 65,-145 71,-139 77,-139 77,-139 315,-139 315,-139 321,-139 327,-145 327,-151 327,-151 327,-171 327,-171 327,-177 321,-183 315,-183"/>
<text text-anchor="middle" x="196" y="-164.4" font-family="WenQuanYi Zen Hei" font-size="12.00" fill="#17212b">编译期 FNV 混合模块名 / 函数名 / 指令序号</text>
<text text-anchor="middle" x="196" y="-151.4" font-family="WenQuanYi Zen Hei" font-size="12.00" fill="#17212b">不依赖运行地址，也不依赖编译顺序</text>
</g>
<!-- rt&#45;&gt;good -->
<g id="edge6" class="edge">
<title>rt&#45;&gt;good</title>
<path fill="none" stroke="#6d28d9" stroke-width="1.5" stroke-dasharray="5,2" d="M290.97,-248.92C271.96,-231.53 244.91,-206.76 224.53,-188.11"/>
<polygon fill="#6d28d9" stroke="#6d28d9" stroke-width="1.5" points="226.28,-186.15 218.97,-183.03 222.73,-190.03 226.28,-186.15"/>
</g>
<!-- bad1 -->
<g id="node7" class="node">
<title>bad1</title>
<path fill="#fee2e2" stroke="#b91c1c" stroke-width="1.3" d="M491,-183C491,-183 377,-183 377,-183 371,-183 365,-177 365,-171 365,-171 365,-151 365,-151 365,-145 371,-139 377,-139 377,-139 491,-139 491,-139 497,-139 503,-145 503,-151 503,-151 503,-171 503,-171 503,-177 497,-183 491,-183"/>
<text text-anchor="middle" x="434" y="-164.4" font-family="WenQuanYi Zen Hei" font-size="12.00" fill="#17212b">ASLR 下同一分支</text>
<text text-anchor="middle" x="434" y="-151.4" font-family="WenQuanYi Zen Hei" font-size="12.00" fill="#17212b">两次运行得到不同 ID</text>
</g>
<!-- rt&#45;&gt;bad1 -->
<g id="edge7" class="edge">
<title>rt&#45;&gt;bad1</title>
<path fill="none" stroke="#b91c1c" stroke-width="1.5" stroke-dasharray="5,2" d="M337.42,-248.92C356.75,-231.53 384.26,-206.76 404.99,-188.11"/>
<polygon fill="#b91c1c" stroke="#b91c1c" stroke-width="1.5" points="406.82,-190 410.64,-183.03 403.31,-186.09 406.82,-190"/>
</g>
<!-- b3 -->
<g id="node6" class="node">
<title>b3</title>
<path fill="#dbeafe" stroke="#2563eb" stroke-width="1.3" d="M282.5,-73C282.5,-73 109.5,-73 109.5,-73 103.5,-73 97.5,-67 97.5,-61 97.5,-61 97.5,-28 97.5,-28 97.5,-22 103.5,-16 109.5,-16 109.5,-16 282.5,-16 282.5,-16 288.5,-16 294.5,-22 294.5,-28 294.5,-28 294.5,-61 294.5,-61 294.5,-67 288.5,-73 282.5,-73"/>
<text text-anchor="middle" x="196" y="-54.4" font-family="WenQuanYi Zen Hei" font-size="12.00" fill="#17212b">B3 分支兴趣位图</text>
<text text-anchor="middle" x="196" y="-41.4" font-family="WenQuanYi Zen Hei" font-size="12.00" fill="#17212b">XXH32(site_id, taken) % 65536</text>
<text text-anchor="middle" x="196" y="-28.4" font-family="WenQuanYi Zen Hei" font-size="12.00" fill="#17212b">判断这条分支是否值得再解</text>
</g>
<!-- good&#45;&gt;b3 -->
<g id="edge4" class="edge">
<title>good&#45;&gt;b3</title>
<path fill="none" stroke="#64748b" stroke-width="1.5" d="M196,-139C196,-122.77 196,-99.94 196,-80.9"/>
<polygon fill="#64748b" stroke="#64748b" stroke-width="1.5" points="198.63,-80.78 196,-73.28 193.38,-80.78 198.63,-80.78"/>
<text text-anchor="middle" x="233" y="-103.2" font-family="WenQuanYi Zen Hei" font-size="11.00" fill="#64748b"> &#160;作为哈希输入</text>
</g>
<!-- bad2 -->
<g id="node8" class="node">
<title>bad2</title>
<path fill="#fee2e2" stroke="#b91c1c" stroke-width="2" d="M533.5,-66.5C533.5,-66.5 362.5,-66.5 362.5,-66.5 356.5,-66.5 350.5,-60.5 350.5,-54.5 350.5,-54.5 350.5,-34.5 350.5,-34.5 350.5,-28.5 356.5,-22.5 362.5,-22.5 362.5,-22.5 533.5,-22.5 533.5,-22.5 539.5,-22.5 545.5,-28.5 545.5,-34.5 545.5,-34.5 545.5,-54.5 545.5,-54.5 545.5,-60.5 539.5,-66.5 533.5,-66.5"/>
<text text-anchor="middle" x="448" y="-47.9" font-family="WenQuanYi Zen Hei" font-size="12.00" fill="#17212b">B3 完全失效</text>
<text text-anchor="middle" x="448" y="-34.9" font-family="WenQuanYi Zen Hei" font-size="12.00" fill="#17212b">同一分支被反复求解、算力空转</text>
</g>
<!-- bad1&#45;&gt;bad2 -->
<g id="edge5" class="edge">
<title>bad1&#45;&gt;bad2</title>
<path fill="none" stroke="#64748b" stroke-width="1.5" d="M436.57,-139C438.78,-120.87 442.01,-94.52 444.47,-74.4"/>
<polygon fill="#64748b" stroke="#64748b" stroke-width="1.5" points="447.1,-74.52 445.4,-66.76 441.89,-73.88 447.1,-74.52"/>
</g>
</g>
</svg>
