<?xml version="1.0" encoding="UTF-8" standalone="no"?>
<!DOCTYPE svg PUBLIC "-//W3C//DTD SVG 1.1//EN"
 "http://www.w3.org/Graphics/SVG/1.1/DTD/svg11.dtd">
<!-- Generated by graphviz version 2.43.0 (0)
 -->
<!-- Title: evp_pipeline Pages: 1 -->
<svg width="2344pt" height="899pt"
 viewBox="0.00 0.00 2343.90 899.40" xmlns="http://www.w3.org/2000/svg" xmlns:xlink="http://www.w3.org/1999/xlink">
<g id="graph0" class="graph" transform="scale(1 1) rotate(0) translate(25.2 874.2)">
<title>evp_pipeline</title>
<polygon fill="#f8fafc" stroke="transparent" points="-25.2,25.2 -25.2,-874.2 2318.7,-874.2 2318.7,25.2 -25.2,25.2"/>
<text text-anchor="middle" x="1146.75" y="-833.8" font-family="DejaVu Sans" font-size="14.00">SymCC F300&#45;F304: executable&#45;bound profiles, online delivery and cost&#45;aware domain admission</text>
<g id="clust6" class="cluster">
<title>cluster_solver</title>
<path fill="#f8fafc" stroke="#94a3b8" d="M1622.5,-90C1622.5,-90 2273.5,-90 2273.5,-90 2279.5,-90 2285.5,-96 2285.5,-102 2285.5,-102 2285.5,-294 2285.5,-294 2285.5,-300 2279.5,-306 2273.5,-306 2273.5,-306 1622.5,-306 1622.5,-306 1616.5,-306 1610.5,-300 1610.5,-294 1610.5,-294 1610.5,-102 1610.5,-102 1610.5,-96 1616.5,-90 1622.5,-90"/>
<text text-anchor="middle" x="1948" y="-290.8" font-family="DejaVu Sans" font-size="14.00" fill="#475569">Implemented QSYM consumption path</text>
</g>
<!-- cmp -->
<g id="node1" class="node">
<title>cmp</title>
<path fill="#e0f2fe" stroke="#0369a1" stroke-width="1.2" d="M197,-820C197,-820 12,-820 12,-820 6,-820 0,-814 0,-808 0,-808 0,-792 0,-792 0,-786 6,-780 12,-780 12,-780 197,-780 197,-780 203,-780 209,-786 209,-792 209,-792 209,-808 209,-808 209,-814 203,-820 197,-820"/>
<text text-anchor="middle" x="104.5" y="-803.2" font-family="DejaVu Sans" font-size="11.00" fill="#0f172a">Instrumented compare / switch</text>
<text text-anchor="middle" x="104.5" y="-791.2" font-family="DejaVu Sans" font-size="11.00" fill="#0f172a">(path site, width, concrete value)</text>
</g>
<!-- runtime -->
<g id="node2" class="node">
<title>runtime</title>
<path fill="#ecfeff" stroke="#0e7490" stroke-width="1.2" d="M442.5,-826C442.5,-826 286.5,-826 286.5,-826 280.5,-826 274.5,-820 274.5,-814 274.5,-814 274.5,-786 274.5,-786 274.5,-780 280.5,-774 286.5,-774 286.5,-774 442.5,-774 442.5,-774 448.5,-774 454.5,-780 454.5,-786 454.5,-786 454.5,-814 454.5,-814 454.5,-820 448.5,-826 442.5,-826"/>
<text text-anchor="middle" x="364.5" y="-809.2" font-family="DejaVu Sans" font-size="11.00" fill="#0f172a">Bounded per&#45;run profile</text>
<text text-anchor="middle" x="364.5" y="-797.2" font-family="DejaVu Sans" font-size="11.00" fill="#0f172a">512 sites x 8 distinct values</text>
<text text-anchor="middle" x="364.5" y="-785.2" font-family="DejaVu Sans" font-size="11.00" fill="#0f172a">9th value =&gt; saturated</text>
</g>
<!-- cmp&#45;&gt;runtime -->
<g id="edge1" class="edge">
<title>cmp&#45;&gt;runtime</title>
<path fill="none" stroke="#475569" stroke-width="1.25" d="M209.13,-800C228.27,-800 248.18,-800 267.1,-800"/>
<polygon fill="#475569" stroke="#475569" stroke-width="1.25" points="267.1,-802.52 274.3,-800 267.1,-797.48 267.1,-802.52"/>
<text text-anchor="middle" x="241.75" y="-805.8" font-family="DejaVu Sans" font-size="9.00" fill="#334155">observe</text>
</g>
<!-- telemetry -->
<g id="node3" class="node">
<title>telemetry</title>
<path fill="#f0fdfa" stroke="#0f766e" stroke-width="1.2" d="M707,-820C707,-820 548,-820 548,-820 542,-820 536,-814 536,-808 536,-808 536,-792 536,-792 536,-786 542,-780 548,-780 548,-780 707,-780 707,-780 713,-780 719,-786 719,-792 719,-792 719,-808 719,-808 719,-814 713,-820 707,-820"/>
<text text-anchor="middle" x="627.5" y="-803.2" font-family="DejaVu Sans" font-size="11.00" fill="#0f172a">Atomic solver telemetry</text>
<text text-anchor="middle" x="627.5" y="-791.2" font-family="DejaVu Sans" font-size="11.00" fill="#0f172a">observations + value counts</text>
</g>
<!-- runtime&#45;&gt;telemetry -->
<g id="edge2" class="edge">
<title>runtime&#45;&gt;telemetry</title>
<path fill="none" stroke="#475569" stroke-width="1.25" d="M454.64,-800C478.36,-800 504.07,-800 528.24,-800"/>
<polygon fill="#475569" stroke="#475569" stroke-width="1.25" points="528.49,-802.52 535.69,-800 528.49,-797.48 528.49,-802.52"/>
<text text-anchor="middle" x="495.25" y="-805.8" font-family="DejaVu Sans" font-size="9.00" fill="#334155">emit at exit</text>
</g>
<!-- coordinator -->
<g id="node4" class="node">
<title>coordinator</title>
<path fill="#ede9fe" stroke="#6d28d9" stroke-width="1.2" d="M707.5,-716C707.5,-716 547.5,-716 547.5,-716 541.5,-716 535.5,-710 535.5,-704 535.5,-704 535.5,-676 535.5,-676 535.5,-670 541.5,-664 547.5,-664 547.5,-664 707.5,-664 707.5,-664 713.5,-664 719.5,-670 719.5,-676 719.5,-676 719.5,-704 719.5,-704 719.5,-710 713.5,-716 707.5,-716"/>
<text text-anchor="middle" x="627.5" y="-699.2" font-family="DejaVu Sans" font-size="11.00" fill="#0f172a">MPI master rolling window</text>
<text text-anchor="middle" x="627.5" y="-687.2" font-family="DejaVu Sans" font-size="11.00" fill="#0f172a">bounded canonical records</text>
<text text-anchor="middle" x="627.5" y="-675.2" font-family="DejaVu Sans" font-size="11.00" fill="#0f172a">context&#45;isolated aggregation</text>
</g>
<!-- telemetry&#45;&gt;coordinator -->
<g id="edge3" class="edge">
<title>telemetry&#45;&gt;coordinator</title>
<path fill="none" stroke="#475569" stroke-width="1.25" d="M627.5,-779.94C627.5,-764.47 627.5,-742.29 627.5,-723.95"/>
<polygon fill="#475569" stroke="#475569" stroke-width="1.25" points="630.02,-723.56 627.5,-716.36 624.98,-723.56 630.02,-723.56"/>
<text text-anchor="middle" x="655.5" y="-742.8" font-family="DejaVu Sans" font-size="9.00" fill="#334155">TAG_RESULT</text>
</g>
<!-- aggregate -->
<g id="node5" class="node">
<title>aggregate</title>
<path fill="#ecfdf5" stroke="#15803d" stroke-width="1.2" d="M1042,-710C1042,-710 831,-710 831,-710 825,-710 819,-704 819,-698 819,-698 819,-682 819,-682 819,-676 825,-670 831,-670 831,-670 1042,-670 1042,-670 1048,-670 1054,-676 1054,-682 1054,-682 1054,-698 1054,-698 1054,-704 1048,-710 1042,-710"/>
<text text-anchor="middle" x="936.5" y="-693.2" font-family="DejaVu Sans" font-size="11.00" fill="#0f172a">Deterministic aggregator</text>
<text text-anchor="middle" x="936.5" y="-681.2" font-family="DejaVu Sans" font-size="11.00" fill="#0f172a">merge, normalize, entropy, admission</text>
</g>
<!-- coordinator&#45;&gt;aggregate -->
<g id="edge4" class="edge">
<title>coordinator&#45;&gt;aggregate</title>
<path fill="none" stroke="#475569" stroke-width="1.25" d="M719.79,-690C748.6,-690 780.88,-690 811.54,-690"/>
<polygon fill="#475569" stroke="#475569" stroke-width="1.25" points="811.68,-692.52 818.88,-690 811.68,-687.48 811.68,-692.52"/>
<text text-anchor="middle" x="769.25" y="-695.8" font-family="DejaVu Sans" font-size="9.00" fill="#334155">publish interval</text>
</g>
<!-- feedback_gate -->
<g id="node6" class="node">
<title>feedback_gate</title>
<path fill="#ffedd5" stroke="#c2410c" stroke-width="1.2" d="M997.5,-596C997.5,-596 775.5,-596 775.5,-596 769.5,-596 763.5,-590 763.5,-584 763.5,-584 763.5,-556 763.5,-556 763.5,-550 769.5,-544 775.5,-544 775.5,-544 997.5,-544 997.5,-544 1003.5,-544 1009.5,-550 1009.5,-556 1009.5,-556 1009.5,-584 1009.5,-584 1009.5,-590 1003.5,-596 997.5,-596"/>
<text text-anchor="middle" x="886.5" y="-579.2" font-family="DejaVu Sans" font-size="11.00" fill="#0f172a">Cost&#45;aware exact&#45;domain gate</text>
<text text-anchor="middle" x="886.5" y="-567.2" font-family="DejaVu Sans" font-size="11.00" fill="#0f172a">queries &gt;= qmin, validated/query &lt; tau</text>
<text text-anchor="middle" x="886.5" y="-555.2" font-family="DejaVu Sans" font-size="11.00" fill="#0f172a">and solver check time &gt;= cost floor</text>
</g>
<!-- aggregate&#45;&gt;feedback_gate -->
<g id="edge5" class="edge">
<title>aggregate&#45;&gt;feedback_gate</title>
<path fill="none" stroke="#475569" stroke-width="1.25" d="M928.36,-669.78C920.71,-651.75 909.14,-624.44 900.1,-603.1"/>
<polygon fill="#475569" stroke="#475569" stroke-width="1.25" points="902.39,-602.05 897.26,-596.4 897.75,-604.01 902.39,-602.05"/>
<text text-anchor="middle" x="970.5" y="-632.8" font-family="DejaVu Sans" font-size="9.00" fill="#334155">join exact key</text>
<text text-anchor="middle" x="970.5" y="-622.8" font-family="DejaVu Sans" font-size="9.00" fill="#334155">(context,site,bits,values)</text>
</g>
<!-- withdraw -->
<g id="node11" class="node">
<title>withdraw</title>
<path fill="#fee2e2" stroke="#b91c1c" stroke-width="1.2" d="M1155,-486C1155,-486 968,-486 968,-486 962,-486 956,-480 956,-474 956,-474 956,-458 956,-458 956,-452 962,-446 968,-446 968,-446 1155,-446 1155,-446 1161,-446 1167,-452 1167,-458 1167,-458 1167,-474 1167,-474 1167,-480 1161,-486 1155,-486"/>
<text text-anchor="middle" x="1061.5" y="-469.2" font-family="DejaVu Sans" font-size="11.00" fill="#0f172a">Domain no longer limited</text>
<text text-anchor="middle" x="1061.5" y="-457.2" font-family="DejaVu Sans" font-size="11.00" fill="#0f172a">publish profile_count 0 tombstone</text>
</g>
<!-- aggregate&#45;&gt;withdraw -->
<g id="edge8" class="edge">
<title>aggregate&#45;&gt;withdraw</title>
<path fill="none" stroke="#b91c1c" stroke-width="1.25" d="M995.84,-669.94C1010.15,-662.69 1024.03,-652.94 1033.5,-640 1065.37,-596.45 1066.52,-530.19 1064.22,-493.6"/>
<polygon fill="#b91c1c" stroke="#b91c1c" stroke-width="1.25" points="1066.72,-493.26 1063.68,-486.27 1061.69,-493.63 1066.72,-493.26"/>
<text text-anchor="middle" x="1107" y="-567.8" font-family="DejaVu Sans" font-size="9.00" fill="#991b1b">admission revoked</text>
</g>
<!-- feedback_gate&#45;&gt;coordinator -->
<g id="edge21" class="edge">
<title>feedback_gate&#45;&gt;coordinator</title>
<path fill="none" stroke="#0f766e" stroke-width="1.25" stroke-dasharray="5,2" d="M764.51,-596.13C744.52,-602.5 724.49,-610.36 706.5,-620 687.94,-629.95 670.02,-644.99 655.96,-658.49"/>
<polygon fill="#0f766e" stroke="#0f766e" stroke-width="1.25" points="653.95,-656.93 650.57,-663.77 657.48,-660.53 653.95,-656.93"/>
<text text-anchor="middle" x="759.5" y="-632.8" font-family="DejaVu Sans" font-size="9.00" fill="#0f766e">old failures age out:</text>
<text text-anchor="middle" x="759.5" y="-622.8" font-family="DejaVu Sans" font-size="9.00" fill="#0f766e">bounded re&#45;exploration</text>
</g>
<!-- seal -->
<g id="node7" class="node">
<title>seal</title>
<path fill="#f7fee7" stroke="#4d7c0f" stroke-width="1.2" d="M1482.5,-590C1482.5,-590 1258.5,-590 1258.5,-590 1252.5,-590 1246.5,-584 1246.5,-578 1246.5,-578 1246.5,-562 1246.5,-562 1246.5,-556 1252.5,-550 1258.5,-550 1258.5,-550 1482.5,-550 1482.5,-550 1488.5,-550 1494.5,-556 1494.5,-562 1494.5,-562 1494.5,-578 1494.5,-578 1494.5,-584 1488.5,-590 1482.5,-590"/>
<text text-anchor="middle" x="1370.5" y="-573.2" font-family="DejaVu Sans" font-size="11.00" fill="#0f172a">Verified v3 profile artifact</text>
<text text-anchor="middle" x="1370.5" y="-561.2" font-family="DejaVu Sans" font-size="11.00" fill="#0f172a">canonical SHA&#45;256 + admission&#45;v2 proof</text>
</g>
<!-- feedback_gate&#45;&gt;seal -->
<g id="edge6" class="edge">
<title>feedback_gate&#45;&gt;seal</title>
<path fill="none" stroke="#475569" stroke-width="1.25" d="M957.28,-596.02C1019.6,-615.73 1112.88,-637.46 1194.5,-625 1235.27,-618.78 1279.58,-604.89 1313.54,-592.62"/>
<polygon fill="#475569" stroke="#475569" stroke-width="1.25" points="1314.73,-594.87 1320.63,-590.04 1313,-590.14 1314.73,-594.87"/>
<text text-anchor="middle" x="1153.5" y="-627.8" font-family="DejaVu Sans" font-size="9.00" fill="#334155">admit or suppress</text>
</g>
<!-- sidecar -->
<g id="node8" class="node">
<title>sidecar</title>
<path fill="#fef9c3" stroke="#a16207" stroke-width="1.2" d="M1466,-486C1466,-486 1291,-486 1291,-486 1285,-486 1279,-480 1279,-474 1279,-474 1279,-458 1279,-458 1279,-452 1285,-446 1291,-446 1291,-446 1466,-446 1466,-446 1472,-446 1478,-452 1478,-458 1478,-458 1478,-474 1478,-474 1478,-480 1472,-486 1466,-486"/>
<text text-anchor="middle" x="1378.5" y="-469.2" font-family="DejaVu Sans" font-size="11.00" fill="#0f172a">Content&#45;addressed generation</text>
<text text-anchor="middle" x="1378.5" y="-457.2" font-family="DejaVu Sans" font-size="11.00" fill="#0f172a">strict runtime sidecar + artifact</text>
</g>
<!-- seal&#45;&gt;sidecar -->
<g id="edge7" class="edge">
<title>seal&#45;&gt;sidecar</title>
<path fill="none" stroke="#475569" stroke-width="1.25" d="M1372,-549.81C1373.26,-533.86 1375.05,-510.98 1376.44,-493.32"/>
<polygon fill="#475569" stroke="#475569" stroke-width="1.25" points="1378.95,-493.47 1377,-486.1 1373.93,-493.08 1378.95,-493.47"/>
<text text-anchor="middle" x="1426" y="-512.8" font-family="DejaVu Sans" font-size="9.00" fill="#334155">verify then materialize</text>
</g>
<!-- transport -->
<g id="node9" class="node">
<title>transport</title>
<path fill="#fae8ff" stroke="#a21caf" stroke-width="1.2" d="M1464,-388C1464,-388 1293,-388 1293,-388 1287,-388 1281,-382 1281,-376 1281,-376 1281,-360 1281,-360 1281,-354 1287,-348 1293,-348 1293,-348 1464,-348 1464,-348 1470,-348 1476,-354 1476,-360 1476,-360 1476,-376 1476,-376 1476,-382 1470,-388 1464,-388"/>
<text text-anchor="middle" x="1378.5" y="-371.2" font-family="DejaVu Sans" font-size="11.00" fill="#0f172a">Version&#45;aware MPI delivery</text>
<text text-anchor="middle" x="1378.5" y="-359.2" font-family="DejaVu Sans" font-size="11.00" fill="#0f172a">send bytes only on cache miss</text>
</g>
<!-- sidecar&#45;&gt;transport -->
<g id="edge10" class="edge">
<title>sidecar&#45;&gt;transport</title>
<path fill="none" stroke="#475569" stroke-width="1.25" d="M1378.5,-445.57C1378.5,-431.17 1378.5,-411.36 1378.5,-395.5"/>
<polygon fill="#475569" stroke="#475569" stroke-width="1.25" points="1381.02,-395.27 1378.5,-388.07 1375.98,-395.27 1381.02,-395.27"/>
<text text-anchor="middle" x="1428.5" y="-414.8" font-family="DejaVu Sans" font-size="9.00" fill="#334155">semantic change only</text>
</g>
<!-- worker_cache -->
<g id="node10" class="node">
<title>worker_cache</title>
<path fill="#fce7f3" stroke="#be185d" stroke-width="1.2" d="M1803,-388C1803,-388 1628,-388 1628,-388 1622,-388 1616,-382 1616,-376 1616,-376 1616,-360 1616,-360 1616,-354 1622,-348 1628,-348 1628,-348 1803,-348 1803,-348 1809,-348 1815,-354 1815,-360 1815,-360 1815,-376 1815,-376 1815,-382 1809,-388 1803,-388"/>
<text text-anchor="middle" x="1715.5" y="-371.2" font-family="DejaVu Sans" font-size="11.00" fill="#0f172a">Worker&#45;local atomic install</text>
<text text-anchor="middle" x="1715.5" y="-359.2" font-family="DejaVu Sans" font-size="11.00" fill="#0f172a">SHA&#45;256 verified / no shared FS</text>
</g>
<!-- transport&#45;&gt;worker_cache -->
<g id="edge11" class="edge">
<title>transport&#45;&gt;worker_cache</title>
<path fill="none" stroke="#475569" stroke-width="1.25" d="M1476.43,-368C1517.85,-368 1566.23,-368 1608.58,-368"/>
<polygon fill="#475569" stroke="#475569" stroke-width="1.25" points="1608.67,-370.52 1615.87,-368 1608.67,-365.48 1608.67,-370.52"/>
<text text-anchor="middle" x="1546" y="-373.8" font-family="DejaVu Sans" font-size="9.00" fill="#334155">version + optional bytes</text>
</g>
<!-- profile_solve -->
<g id="node12" class="node">
<title>profile_solve</title>
<path fill="#fff7ed" stroke="#c2410c" stroke-width="1.2" d="M1800,-252C1800,-252 1631,-252 1631,-252 1625,-252 1619,-246 1619,-240 1619,-240 1619,-224 1619,-224 1619,-218 1625,-212 1631,-212 1631,-212 1800,-212 1800,-212 1806,-212 1812,-218 1812,-224 1812,-224 1812,-240 1812,-240 1812,-246 1806,-252 1800,-252"/>
<text text-anchor="middle" x="1715.5" y="-235.2" font-family="DejaVu Sans" font-size="11.00" fill="#0f172a">Optimistic solve with</text>
<text text-anchor="middle" x="1715.5" y="-223.2" font-family="DejaVu Sans" font-size="11.00" fill="#0f172a">empirical domain assumptions</text>
</g>
<!-- worker_cache&#45;&gt;profile_solve -->
<g id="edge19" class="edge">
<title>worker_cache&#45;&gt;profile_solve</title>
<path fill="none" stroke="#c2410c" stroke-width="1.25" d="M1715.5,-347.8C1715.5,-324.62 1715.5,-285.5 1715.5,-259.46"/>
<polygon fill="#c2410c" stroke="#c2410c" stroke-width="1.25" points="1718.02,-259.36 1715.5,-252.16 1712.98,-259.36 1718.02,-259.36"/>
<text text-anchor="middle" x="1773" y="-316.8" font-family="DejaVu Sans" font-size="9.00" fill="#9a3412">exact executable context</text>
</g>
<!-- withdraw&#45;&gt;sidecar -->
<g id="edge9" class="edge">
<title>withdraw&#45;&gt;sidecar</title>
<path fill="none" stroke="#b91c1c" stroke-width="1.25" d="M1167.06,-466C1200.55,-466 1237.6,-466 1271.21,-466"/>
<polygon fill="#b91c1c" stroke="#b91c1c" stroke-width="1.25" points="1271.57,-468.52 1278.77,-466 1271.57,-463.48 1271.57,-468.52"/>
<text text-anchor="middle" x="1223" y="-471.8" font-family="DejaVu Sans" font-size="9.00" fill="#991b1b">empty generation</text>
</g>
<!-- sat -->
<g id="node13" class="node">
<title>sat</title>
<path fill="#fffbeb" stroke="#b45309" stroke-width="1.2" d="M1963,-250C1963,-250 1884,-250 1884,-250 1878,-250 1872,-244 1872,-238 1872,-238 1872,-226 1872,-226 1872,-220 1878,-214 1884,-214 1884,-214 1963,-214 1963,-214 1969,-214 1975,-220 1975,-226 1975,-226 1975,-238 1975,-238 1975,-244 1969,-250 1963,-250"/>
<text text-anchor="middle" x="1923.5" y="-229.2" font-family="DejaVu Sans" font-size="11.00" fill="#0f172a">SAT candidate</text>
</g>
<!-- profile_solve&#45;&gt;sat -->
<g id="edge12" class="edge">
<title>profile_solve&#45;&gt;sat</title>
<path fill="none" stroke="#475569" stroke-width="1.25" d="M1812.19,-232C1830.04,-232 1848.18,-232 1864.49,-232"/>
<polygon fill="#475569" stroke="#475569" stroke-width="1.25" points="1864.64,-234.52 1871.84,-232 1864.64,-229.48 1864.64,-234.52"/>
<text text-anchor="middle" x="1842" y="-237.8" font-family="DejaVu Sans" font-size="9.00" fill="#334155">SAT</text>
</g>
<!-- fallback -->
<g id="node16" class="node">
<title>fallback</title>
<path fill="#fee2e2" stroke="#b91c1c" stroke-width="1.8" d="M1758.5,-146C1758.5,-146 1630.5,-146 1630.5,-146 1624.5,-146 1618.5,-140 1618.5,-134 1618.5,-134 1618.5,-118 1618.5,-118 1618.5,-112 1624.5,-106 1630.5,-106 1630.5,-106 1758.5,-106 1758.5,-106 1764.5,-106 1770.5,-112 1770.5,-118 1770.5,-118 1770.5,-134 1770.5,-134 1770.5,-140 1764.5,-146 1758.5,-146"/>
<text text-anchor="middle" x="1694.5" y="-129.2" font-family="DejaVu Sans" font-size="11.00" fill="#0f172a">UNSAT / unknown</text>
<text text-anchor="middle" x="1694.5" y="-117.2" font-family="DejaVu Sans" font-size="11.00" fill="#0f172a">retry complete formula</text>
</g>
<!-- profile_solve&#45;&gt;fallback -->
<g id="edge16" class="edge">
<title>profile_solve&#45;&gt;fallback</title>
<path fill="none" stroke="#b91c1c" stroke-width="1.8" d="M1711.65,-211.92C1708.35,-195.61 1703.58,-171.94 1699.9,-153.74"/>
<polygon fill="#b91c1c" stroke="#b91c1c" stroke-width="1.8" points="1702.29,-152.87 1698.4,-146.31 1697.35,-153.86 1702.29,-152.87"/>
<text text-anchor="middle" x="1746.5" y="-180.8" font-family="DejaVu Sans" font-size="9.00" fill="#991b1b">UNSAT / unknown</text>
</g>
<!-- validate -->
<g id="node14" class="node">
<title>validate</title>
<path fill="#fefce8" stroke="#a16207" stroke-width="1.2" d="M2190.5,-252C2190.5,-252 2046.5,-252 2046.5,-252 2040.5,-252 2034.5,-246 2034.5,-240 2034.5,-240 2034.5,-224 2034.5,-224 2034.5,-218 2040.5,-212 2046.5,-212 2046.5,-212 2190.5,-212 2190.5,-212 2196.5,-212 2202.5,-218 2202.5,-224 2202.5,-224 2202.5,-240 2202.5,-240 2202.5,-246 2196.5,-252 2190.5,-252"/>
<text text-anchor="middle" x="2118.5" y="-235.2" font-family="DejaVu Sans" font-size="11.00" fill="#0f172a">Validate against complete</text>
<text text-anchor="middle" x="2118.5" y="-223.2" font-family="DejaVu Sans" font-size="11.00" fill="#0f172a">relevant prefix formula</text>
</g>
<!-- sat&#45;&gt;validate -->
<g id="edge13" class="edge">
<title>sat&#45;&gt;validate</title>
<path fill="none" stroke="#475569" stroke-width="1.25" d="M1975.3,-232C1992.51,-232 2009.72,-232 2026.94,-232"/>
<polygon fill="#475569" stroke="#475569" stroke-width="1.25" points="2027.11,-234.52 2034.31,-232 2027.11,-229.48 2027.11,-234.52"/>
</g>
<!-- accept -->
<g id="node15" class="node">
<title>accept</title>
<path fill="#dcfce7" stroke="#15803d" stroke-width="1.2" d="M1958,-144C1958,-144 1813,-144 1813,-144 1807,-144 1801,-138 1801,-132 1801,-132 1801,-120 1801,-120 1801,-114 1807,-108 1813,-108 1813,-108 1958,-108 1958,-108 1964,-108 1970,-114 1970,-120 1970,-120 1970,-132 1970,-132 1970,-138 1964,-144 1958,-144"/>
<text text-anchor="middle" x="1885.5" y="-123.2" font-family="DejaVu Sans" font-size="11.00" fill="#0f172a">Accept only validated SAT</text>
</g>
<!-- validate&#45;&gt;accept -->
<g id="edge14" class="edge">
<title>validate&#45;&gt;accept</title>
<path fill="none" stroke="#475569" stroke-width="1.25" d="M2075.76,-211.92C2034.57,-193.54 1972.48,-165.82 1930.53,-147.1"/>
<polygon fill="#475569" stroke="#475569" stroke-width="1.25" points="1931.32,-144.69 1923.72,-144.06 1929.27,-149.29 1931.32,-144.69"/>
<text text-anchor="middle" x="2026.5" y="-180.8" font-family="DejaVu Sans" font-size="9.00" fill="#334155">valid</text>
</g>
<!-- validate&#45;&gt;fallback -->
<g id="edge15" class="edge">
<title>validate&#45;&gt;fallback</title>
<path fill="none" stroke="#475569" stroke-width="1.25" d="M2034.26,-212.87C1966.95,-198.04 1870.34,-176.01 1786.5,-154 1779.5,-152.16 1772.22,-150.17 1764.96,-148.13"/>
<polygon fill="#475569" stroke="#475569" stroke-width="1.25" points="1765.33,-145.61 1757.71,-146.07 1763.95,-150.46 1765.33,-145.61"/>
<text text-anchor="middle" x="1937.5" y="-180.8" font-family="DejaVu Sans" font-size="9.00" fill="#334155">invalid</text>
</g>
<!-- feedback -->
<g id="node17" class="node">
<title>feedback</title>
<polygon fill="#ede9fe" stroke="#6d28d9" stroke-width="1.2" points="2271,-154 2030,-154 2030,-98 2277,-98 2277,-148 2271,-154"/>
<polyline fill="none" stroke="#6d28d9" stroke-width="1.2" points="2271,-154 2271,-148 "/>
<polyline fill="none" stroke="#6d28d9" stroke-width="1.2" points="2277,-148 2271,-148 "/>
<text text-anchor="middle" x="2153.5" y="-138.8" font-family="DejaVu Sans" font-size="9.00" fill="#0f172a">Per exact domain: attempts = prefilter + queries</text>
<text text-anchor="middle" x="2153.5" y="-128.8" font-family="DejaVu Sans" font-size="9.00" fill="#0f172a">queries = SAT + UNSAT + UNKNOWN</text>
<text text-anchor="middle" x="2153.5" y="-118.8" font-family="DejaVu Sans" font-size="9.00" fill="#0f172a">SAT = validated + validation failures</text>
<text text-anchor="middle" x="2153.5" y="-108.8" font-family="DejaVu Sans" font-size="9.00" fill="#0f172a">plus cumulative Z3 check time (us)</text>
</g>
<!-- accept&#45;&gt;feedback -->
<g id="edge17" class="edge">
<title>accept&#45;&gt;feedback</title>
<path fill="none" stroke="#6d28d9" stroke-width="1.25" stroke-dasharray="5,2" d="M1970.04,-126C1987.49,-126 2004.94,-126 2022.4,-126"/>
<polygon fill="#6d28d9" stroke="#6d28d9" stroke-width="1.25" points="2022.68,-128.52 2029.88,-126 2022.68,-123.48 2022.68,-128.52"/>
</g>
<!-- boundary -->
<g id="node18" class="node">
<title>boundary</title>
<polygon fill="#f1f5f9" stroke="#64748b" stroke-width="1.2" points="2065.5,-49 1545.5,-49 1545.5,0 2071.5,0 2071.5,-43 2065.5,-49"/>
<polyline fill="none" stroke="#64748b" stroke-width="1.2" points="2065.5,-49 2065.5,-43 "/>
<polyline fill="none" stroke="#64748b" stroke-width="1.2" points="2071.5,-43 2065.5,-43 "/>
<text text-anchor="middle" x="1808.5" y="-33" font-family="DejaVu Sans" font-size="10.00" fill="#0f172a">Current claim boundary</text>
<text text-anchor="middle" x="1808.5" y="-22" font-family="DejaVu Sans" font-size="10.00" fill="#0f172a">Implemented: online collection, cost&#45;aware proof, verified suppression, re&#45;exploration and full fallback</text>
<text text-anchor="middle" x="1808.5" y="-11" font-family="DejaVu Sans" font-size="10.00" fill="#0f172a">Not claimed: benchmark&#45;wide solver&#45;time or coverage improvement</text>
</g>
<!-- accept&#45;&gt;boundary -->
<g id="edge22" class="edge">
<title>accept&#45;&gt;boundary</title>
<path fill="none" stroke="#64748b" stroke-width="1.25" stroke-dasharray="1,5" d="M1872.09,-107.67C1859.59,-91.52 1840.85,-67.31 1826.95,-49.34"/>
</g>
<!-- fallback&#45;&gt;feedback -->
<g id="edge18" class="edge">
<title>fallback&#45;&gt;feedback</title>
<path fill="none" stroke="#6d28d9" stroke-width="1.25" stroke-dasharray="5,2" d="M1722.89,-146.11C1743.59,-159.48 1772.91,-175.86 1801.5,-183 1894.74,-206.29 2004.34,-180.37 2076.17,-156.36"/>
<polygon fill="#6d28d9" stroke="#6d28d9" stroke-width="1.25" points="2076.99,-158.74 2083,-154.05 2075.37,-153.97 2076.99,-158.74"/>
</g>
<!-- fallback&#45;&gt;boundary -->
<g id="edge23" class="edge">
<title>fallback&#45;&gt;boundary</title>
<path fill="none" stroke="#64748b" stroke-width="1.25" stroke-dasharray="1,5" d="M1716.48,-105.82C1734.98,-89.66 1761.53,-66.5 1781.36,-49.19"/>
</g>
<!-- feedback&#45;&gt;coordinator -->
<g id="edge20" class="edge">
<title>feedback&#45;&gt;coordinator</title>
<path fill="none" stroke="#6d28d9" stroke-width="1.25" d="M2029.79,-147.98C2014.89,-150.18 1999.87,-152.25 1985.5,-154 1506.8,-212.33 1218.84,-52.2 940.5,-446 879.65,-532.09 1092.35,-460.35 1156.5,-544 1170.56,-562.34 1172.05,-578.91 1156.5,-596 1137.42,-616.97 930.44,-615.2 902.5,-620 884.85,-623.03 798.43,-644.91 727.11,-663.23"/>
<polygon fill="#6d28d9" stroke="#6d28d9" stroke-width="1.25" points="726.16,-660.87 719.82,-665.1 727.42,-665.75 726.16,-660.87"/>
<text text-anchor="middle" x="1008" y="-414.8" font-family="DejaVu Sans" font-size="9.00" fill="#6d28d9">rolling TAG_RESULT</text>
</g>
</g>
</svg>
