<svg xmlns="http://www.w3.org/2000/svg" width="1280" height="700" viewBox="0 0 1280 700">
<rect width="100%" height="100%" fill="#f8fafc"/>
<style>text{font-family:Inter,Arial,sans-serif;fill:#172033}.title{font-size:25px;font-weight:700}.label{font-size:14px}.small{font-size:12px;fill:#526078}.grid{stroke:#d8e0ea;stroke-width:1}.axis{stroke:#536176;stroke-width:1.4}.fit{fill:none;stroke:#006d77;stroke-width:4}.edgefit{fill:none;stroke:#c2410c;stroke-width:4}.point{fill:#0f766e;stroke:white;stroke-width:2}.edgepoint{fill:#ea580c;stroke:white;stroke-width:2}</style>
<text x="64" y="38" class="title">Parallel symbolic execution: useful throughput and endpoint coverage</text>
<line x1="86.0" y1="610" x2="611.0" y2="610" class="axis"/>
<line x1="86.0" y1="72" x2="86.0" y2="610" class="axis"/>
<line x1="86.0" y1="610.0" x2="611.0" y2="610.0" class="grid"/>
<text x="76.0" y="614.0" text-anchor="end" class="small">0.0</text>
<line x1="86.0" y1="475.5" x2="611.0" y2="475.5" class="grid"/>
<text x="76.0" y="479.5" text-anchor="end" class="small">11.3</text>
<line x1="86.0" y1="341.0" x2="611.0" y2="341.0" class="grid"/>
<text x="76.0" y="345.0" text-anchor="end" class="small">22.7</text>
<line x1="86.0" y1="206.5" x2="611.0" y2="206.5" class="grid"/>
<text x="76.0" y="210.5" text-anchor="end" class="small">34.0</text>
<line x1="86.0" y1="72.0" x2="611.0" y2="72.0" class="grid"/>
<text x="76.0" y="76.0" text-anchor="end" class="small">45.4</text>
<line x1="101.0" y1="610" x2="101.0" y2="616" class="axis"/>
<text x="101.0" y="634" text-anchor="middle" class="small">1</text>
<line x1="131.0" y1="610" x2="131.0" y2="616" class="axis"/>
<text x="131.0" y="634" text-anchor="middle" class="small">3</text>
<line x1="191.0" y1="610" x2="191.0" y2="616" class="axis"/>
<text x="191.0" y="634" text-anchor="middle" class="small">7</text>
<line x1="311.0" y1="610" x2="311.0" y2="616" class="axis"/>
<text x="311.0" y="634" text-anchor="middle" class="small">15</text>
<line x1="551.0" y1="610" x2="551.0" y2="616" class="axis"/>
<text x="551.0" y="634" text-anchor="middle" class="small">31</text>
<line x1="611.0" y1="610" x2="611.0" y2="616" class="axis"/>
<text x="611.0" y="634" text-anchor="middle" class="small">35</text>
<text x="348.5" y="54" text-anchor="middle" class="label">Unique corpus throughput (inputs/s)</text>
<line x1="701.0" y1="610" x2="1226.0" y2="610" class="axis"/>
<line x1="701.0" y1="72" x2="701.0" y2="610" class="axis"/>
<line x1="701.0" y1="610.0" x2="1226.0" y2="610.0" class="grid"/>
<text x="691.0" y="614.0" text-anchor="end" class="small">149.2</text>
<line x1="701.0" y1="475.5" x2="1226.0" y2="475.5" class="grid"/>
<text x="691.0" y="479.5" text-anchor="end" class="small">164.1</text>
<line x1="701.0" y1="341.0" x2="1226.0" y2="341.0" class="grid"/>
<text x="691.0" y="345.0" text-anchor="end" class="small">179.0</text>
<line x1="701.0" y1="206.5" x2="1226.0" y2="206.5" class="grid"/>
<text x="691.0" y="210.5" text-anchor="end" class="small">193.9</text>
<line x1="701.0" y1="72.0" x2="1226.0" y2="72.0" class="grid"/>
<text x="691.0" y="76.0" text-anchor="end" class="small">208.8</text>
<line x1="716.0" y1="610" x2="716.0" y2="616" class="axis"/>
<text x="716.0" y="634" text-anchor="middle" class="small">1</text>
<line x1="746.0" y1="610" x2="746.0" y2="616" class="axis"/>
<text x="746.0" y="634" text-anchor="middle" class="small">3</text>
<line x1="806.0" y1="610" x2="806.0" y2="616" class="axis"/>
<text x="806.0" y="634" text-anchor="middle" class="small">7</text>
<line x1="926.0" y1="610" x2="926.0" y2="616" class="axis"/>
<text x="926.0" y="634" text-anchor="middle" class="small">15</text>
<line x1="1166.0" y1="610" x2="1166.0" y2="616" class="axis"/>
<text x="1166.0" y="634" text-anchor="middle" class="small">31</text>
<line x1="1226.0" y1="610" x2="1226.0" y2="616" class="axis"/>
<text x="1226.0" y="634" text-anchor="middle" class="small">35</text>
<text x="963.5" y="54" text-anchor="middle" class="label">Endpoint edge coverage (edges)</text>
<polyline points="101.0,441.9 116.0,359.8 131.0,311.1 146.0,278.9 161.0,256.0 176.0,238.9 191.0,225.6 206.0,215.0 221.0,206.4 236.0,199.2 251.0,193.1 266.0,187.9 281.0,183.4 296.0,179.4 311.0,175.9 326.0,172.9 341.0,170.1 356.0,167.6 371.0,165.4 386.0,163.3 401.0,161.5 416.0,159.7 431.0,158.2 446.0,156.7 461.0,155.4 476.0,154.1 491.0,153.0 506.0,151.9 521.0,150.9 536.0,149.9 551.0,149.0 566.0,148.2 581.0,147.4 596.0,146.7 611.0,146.0" class="fit"/>
<text x="963.5" y="650" text-anchor="middle" class="small">Nonmonotone observations; saturation fit withheld</text>
<line x1="101.0" y1="417.9" x2="101.0" y2="417.6" stroke="#0f766e" stroke-width="2"/>
<circle cx="101.0" cy="417.7" r="6" class="point"/>
<line x1="716.0" y1="557.9" x2="716.0" y2="557.9" stroke="#ea580c" stroke-width="2"/>
<circle cx="716.0" cy="557.9" r="6" class="edgepoint"/>
<line x1="131.0" y1="330.9" x2="131.0" y2="324.4" stroke="#0f766e" stroke-width="2"/>
<circle cx="131.0" cy="327.8" r="6" class="point"/>
<line x1="746.0" y1="322.9" x2="746.0" y2="304.8" stroke="#ea580c" stroke-width="2"/>
<circle cx="746.0" cy="310.9" r="6" class="edgepoint"/>
<line x1="191.0" y1="240.5" x2="191.0" y2="236.7" stroke="#0f766e" stroke-width="2"/>
<circle cx="191.0" cy="238.1" r="6" class="point"/>
<line x1="806.0" y1="259.6" x2="806.0" y2="124.1" stroke="#ea580c" stroke-width="2"/>
<circle cx="806.0" cy="214.5" r="6" class="edgepoint"/>
<line x1="311.0" y1="179.1" x2="311.0" y2="175.3" stroke="#0f766e" stroke-width="2"/>
<circle cx="311.0" cy="177.5" r="6" class="point"/>
<line x1="926.0" y1="259.6" x2="926.0" y2="196.4" stroke="#ea580c" stroke-width="2"/>
<circle cx="926.0" cy="238.6" r="6" class="edgepoint"/>
<line x1="551.0" y1="139.9" x2="551.0" y2="129.6" stroke="#0f766e" stroke-width="2"/>
<circle cx="551.0" cy="135.2" r="6" class="point"/>
<line x1="1166.0" y1="259.6" x2="1166.0" y2="178.3" stroke="#ea580c" stroke-width="2"/>
<circle cx="1166.0" cy="229.5" r="6" class="edgepoint"/>
<text x="640.0" y="676" text-anchor="middle" class="label">Parallelism level; points are round means with bootstrap 95% confidence intervals</text>
</svg>
